<mxfile host="app.diagrams.net" agent="Mozilla/5.0 (Macintosh; Intel Mac OS X 10_15_7) AppleWebKit/537.36 (KHTML, like Gecko) Chrome/132.0.0.0 Safari/537.36" version="26.0.13">
  <diagram id="Ht1M8jgEwFfnCIfOTk4-" name="Page-1">
    <mxGraphModel dx="1734" dy="994" grid="0" gridSize="10" guides="1" tooltips="1" connect="1" arrows="1" fold="1" page="1" pageScale="1" pageWidth="1169" pageHeight="827" math="0" shadow="0">
      <root>
        <mxCell id="0" />
        <mxCell id="1" parent="0" />
        <mxCell id="UEzPUAAOIrF-is8g5C7q-125" style="edgeStyle=orthogonalEdgeStyle;rounded=0;orthogonalLoop=1;jettySize=auto;html=1;startArrow=open;startFill=0;endArrow=open;endFill=0;strokeWidth=2;strokeColor=#808080;" parent="1" target="UEzPUAAOIrF-is8g5C7q-112" edge="1">
          <mxGeometry relative="1" as="geometry">
            <Array as="points">
              <mxPoint x="530.5" y="101.5" />
              <mxPoint x="530.5" y="101.5" />
            </Array>
            <mxPoint x="490.5" y="101.5" as="sourcePoint" />
          </mxGeometry>
        </mxCell>
        <mxCell id="UEzPUAAOIrF-is8g5C7q-143" style="edgeStyle=orthogonalEdgeStyle;rounded=0;orthogonalLoop=1;jettySize=auto;html=1;startArrow=open;startFill=0;endArrow=open;endFill=0;strokeWidth=2;strokeColor=#808080;" parent="1" target="UEzPUAAOIrF-is8g5C7q-112" edge="1">
          <mxGeometry relative="1" as="geometry">
            <mxPoint x="490.5" y="121.5" as="sourcePoint" />
            <mxPoint x="578.5" y="111.5" as="targetPoint" />
            <Array as="points">
              <mxPoint x="530.5" y="121.5" />
              <mxPoint x="530.5" y="121.5" />
            </Array>
          </mxGeometry>
        </mxCell>
        <mxCell id="4PaeEq6nUEPhwIZASsdd-17" value="" style="group" vertex="1" connectable="0" parent="1">
          <mxGeometry x="682.0019256391281" y="94" width="84.67718721089841" height="82.42868417743716" as="geometry" />
        </mxCell>
        <mxCell id="4PaeEq6nUEPhwIZASsdd-18" value="" style="sketch=0;points=[[0,0,0],[0.25,0,0],[0.5,0,0],[0.75,0,0],[1,0,0],[0,1,0],[0.25,1,0],[0.5,1,0],[0.75,1,0],[1,1,0],[0,0.25,0],[0,0.5,0],[0,0.75,0],[1,0.25,0],[1,0.5,0],[1,0.75,0]];outlineConnect=0;fontColor=#232F3E;fillColor=#01A88D;strokeColor=#ffffff;dashed=0;verticalLabelPosition=bottom;verticalAlign=top;align=center;html=1;fontSize=12;fontStyle=0;aspect=fixed;shape=mxgraph.aws4.resourceIcon;resIcon=mxgraph.aws4.bedrock;" vertex="1" parent="4PaeEq6nUEPhwIZASsdd-17">
          <mxGeometry x="6.17807436087196" width="78" height="78" as="geometry" />
        </mxCell>
        <mxCell id="4PaeEq6nUEPhwIZASsdd-19" value="" style="rounded=0;whiteSpace=wrap;html=1;strokeColor=light-dark(#07a88d, #ededed);fillColor=light-dark(#07a88d, #ededed);" vertex="1" parent="4PaeEq6nUEPhwIZASsdd-17">
          <mxGeometry x="48.17807436087196" y="9" width="30" height="60" as="geometry" />
        </mxCell>
        <mxCell id="4PaeEq6nUEPhwIZASsdd-20" value="" style="sketch=0;aspect=fixed;pointerEvents=1;shadow=0;dashed=0;html=1;strokeColor=none;labelPosition=center;verticalLabelPosition=bottom;verticalAlign=top;align=center;fillColor=#FFFFFF;shape=mxgraph.mscae.enterprise.document" vertex="1" parent="4PaeEq6nUEPhwIZASsdd-17">
          <mxGeometry x="46.17807436087196" y="21.25" width="28.4" height="35.5" as="geometry" />
        </mxCell>
        <mxCell id="4PaeEq6nUEPhwIZASsdd-21" value="" style="shape=singleArrow;whiteSpace=wrap;html=1;rotation=-30;strokeColor=none;" vertex="1" parent="4PaeEq6nUEPhwIZASsdd-17">
          <mxGeometry x="2.1780743608719604" y="63.5" width="21.6" height="14.5" as="geometry" />
        </mxCell>
        <mxCell id="4PaeEq6nUEPhwIZASsdd-22" value="" style="group" vertex="1" connectable="0" parent="1">
          <mxGeometry x="682.0019256391281" y="241" width="84.67718721089841" height="82.42868417743716" as="geometry" />
        </mxCell>
        <mxCell id="4PaeEq6nUEPhwIZASsdd-23" value="" style="sketch=0;points=[[0,0,0],[0.25,0,0],[0.5,0,0],[0.75,0,0],[1,0,0],[0,1,0],[0.25,1,0],[0.5,1,0],[0.75,1,0],[1,1,0],[0,0.25,0],[0,0.5,0],[0,0.75,0],[1,0.25,0],[1,0.5,0],[1,0.75,0]];outlineConnect=0;fontColor=#232F3E;fillColor=#01A88D;strokeColor=#ffffff;dashed=0;verticalLabelPosition=bottom;verticalAlign=top;align=center;html=1;fontSize=12;fontStyle=0;aspect=fixed;shape=mxgraph.aws4.resourceIcon;resIcon=mxgraph.aws4.bedrock;" vertex="1" parent="4PaeEq6nUEPhwIZASsdd-22">
          <mxGeometry x="6.17807436087196" width="78" height="78" as="geometry" />
        </mxCell>
        <mxCell id="4PaeEq6nUEPhwIZASsdd-24" value="" style="rounded=0;whiteSpace=wrap;html=1;strokeColor=light-dark(#07a88d, #ededed);fillColor=light-dark(#07a88d, #ededed);" vertex="1" parent="4PaeEq6nUEPhwIZASsdd-22">
          <mxGeometry x="48.17807436087196" y="9" width="30" height="60" as="geometry" />
        </mxCell>
        <mxCell id="4PaeEq6nUEPhwIZASsdd-25" value="" style="sketch=0;aspect=fixed;pointerEvents=1;shadow=0;dashed=0;html=1;strokeColor=none;labelPosition=center;verticalLabelPosition=bottom;verticalAlign=top;align=center;fillColor=#FFFFFF;shape=mxgraph.mscae.enterprise.document" vertex="1" parent="4PaeEq6nUEPhwIZASsdd-22">
          <mxGeometry x="46.17807436087196" y="21.25" width="28.4" height="35.5" as="geometry" />
        </mxCell>
        <mxCell id="4PaeEq6nUEPhwIZASsdd-26" value="" style="shape=singleArrow;whiteSpace=wrap;html=1;rotation=-30;strokeColor=none;" vertex="1" parent="4PaeEq6nUEPhwIZASsdd-22">
          <mxGeometry x="2.1780743608719604" y="63.5" width="21.6" height="14.5" as="geometry" />
        </mxCell>
        <mxCell id="4PaeEq6nUEPhwIZASsdd-29" value="" style="group" vertex="1" connectable="0" parent="1">
          <mxGeometry x="440.00192563912805" y="215" width="84.67718721089847" height="151" as="geometry" />
        </mxCell>
        <mxCell id="4PaeEq6nUEPhwIZASsdd-13" value="" style="group" vertex="1" connectable="0" parent="4PaeEq6nUEPhwIZASsdd-29">
          <mxGeometry y="34" width="84.67718721089841" height="82.42868417743716" as="geometry" />
        </mxCell>
        <mxCell id="4PaeEq6nUEPhwIZASsdd-1" value="" style="sketch=0;points=[[0,0,0],[0.25,0,0],[0.5,0,0],[0.75,0,0],[1,0,0],[0,1,0],[0.25,1,0],[0.5,1,0],[0.75,1,0],[1,1,0],[0,0.25,0],[0,0.5,0],[0,0.75,0],[1,0.25,0],[1,0.5,0],[1,0.75,0]];outlineConnect=0;fontColor=#232F3E;fillColor=#01A88D;strokeColor=#ffffff;dashed=0;verticalLabelPosition=bottom;verticalAlign=top;align=center;html=1;fontSize=12;fontStyle=0;aspect=fixed;shape=mxgraph.aws4.resourceIcon;resIcon=mxgraph.aws4.bedrock;" vertex="1" parent="4PaeEq6nUEPhwIZASsdd-13">
          <mxGeometry x="6.17807436087196" width="78" height="78" as="geometry" />
        </mxCell>
        <mxCell id="4PaeEq6nUEPhwIZASsdd-7" value="" style="rounded=0;whiteSpace=wrap;html=1;strokeColor=light-dark(#07a88d, #ededed);fillColor=light-dark(#07a88d, #ededed);" vertex="1" parent="4PaeEq6nUEPhwIZASsdd-13">
          <mxGeometry x="48.17807436087196" y="9" width="30" height="60" as="geometry" />
        </mxCell>
        <mxCell id="4PaeEq6nUEPhwIZASsdd-10" value="" style="sketch=0;aspect=fixed;pointerEvents=1;shadow=0;dashed=0;html=1;strokeColor=none;labelPosition=center;verticalLabelPosition=bottom;verticalAlign=top;align=center;fillColor=#FFFFFF;shape=mxgraph.mscae.enterprise.document" vertex="1" parent="4PaeEq6nUEPhwIZASsdd-13">
          <mxGeometry x="46.17807436087196" y="21.25" width="28.4" height="35.5" as="geometry" />
        </mxCell>
        <mxCell id="4PaeEq6nUEPhwIZASsdd-12" value="" style="shape=singleArrow;whiteSpace=wrap;html=1;rotation=-30;strokeColor=none;" vertex="1" parent="4PaeEq6nUEPhwIZASsdd-13">
          <mxGeometry x="2.1780743608719604" y="63.5" width="21.6" height="14.5" as="geometry" />
        </mxCell>
        <mxCell id="4PaeEq6nUEPhwIZASsdd-27" value="&lt;b&gt;Producer&lt;/b&gt;" style="text;html=1;align=center;verticalAlign=middle;whiteSpace=wrap;rounded=0;" vertex="1" parent="4PaeEq6nUEPhwIZASsdd-29">
          <mxGeometry x="14.998074360871954" y="121" width="60" height="30" as="geometry" />
        </mxCell>
        <mxCell id="4PaeEq6nUEPhwIZASsdd-28" value="&lt;b&gt;Agent&lt;/b&gt;" style="text;html=1;align=center;verticalAlign=middle;whiteSpace=wrap;rounded=0;" vertex="1" parent="4PaeEq6nUEPhwIZASsdd-29">
          <mxGeometry x="14.998074360871954" width="60" height="30" as="geometry" />
        </mxCell>
      </root>
    </mxGraphModel>
  </diagram>
</mxfile>
